<svg xmlns="http://www.w3.org/2000/svg" width="100" height="42" fill="none"><path fill="#F5F5F5" d="M96.931 18.654c.1-.134.284-.184.55-.15.3 0 .567.066.8.2.267.133.467.316.6.55.167.2.184.416.05.65a172.63 172.63 0 0 1-2.2 3.7 57.49 57.49 0 0 1-2.6 3.95c-.9 1.3-1.833 2.483-2.8 3.55-.966 1.033-1.916 1.766-2.85 2.2-.5.233-1.033.316-1.6.25a4.773 4.773 0 0 1-1.5-.55c-.433-.3-.816-.65-1.15-1.05-.3-.434-.466-.85-.5-1.25-.066-.534 0-1.267.2-2.2.2-.934.417-1.784.65-2.55-.4.466-.833 1.016-1.3 1.65-.433.6-.916 1.25-1.45 1.95-.533.7-1.1 1.4-1.7 2.1-.566.7-1.166 1.35-1.8 1.95-.3.3-.766.416-1.4.35-.6-.067-1.2-.234-1.8-.5-.6-.3-1.116-.667-1.55-1.1-.466-.467-.666-.95-.6-1.45.1-1.267.4-2.617.9-4.05a27.156 27.156 0 0 1 1.85-4.15 26.999 26.999 0 0 1 2.35-3.8c.9-1.167 1.784-2.117 2.65-2.85.634-.5 1.217-.784 1.75-.85a3.08 3.08 0 0 1 1.55.2c.5.166 1 .433 1.5.8.5.333 1.034.666 1.6 1 .367-.4.717-.817 1.05-1.25.367-.467.75-.917 1.15-1.35.234-.3.6-.417 1.1-.35a3.56 3.56 0 0 1 1.5.55c.467.3.834.666 1.1 1.1.3.4.334.783.1 1.15-1.133 1.933-2.05 3.65-2.75 5.15-.666 1.5-1.166 2.766-1.5 3.8-.3 1.033-.45 1.816-.45 2.35.034.533.167.8.4.8.667-.034 1.684-.934 3.05-2.7 1.367-1.767 3.05-4.367 5.05-7.8Zm-12.15 1.95c.1-.134.15-.367.15-.7 0-.334-.066-.634-.2-.9-.1-.3-.266-.484-.5-.55-.233-.067-.533.1-.9.5a15.4 15.4 0 0 0-2.15 2.6c-.633 1-1.2 1.983-1.7 2.95-.466.966-.85 1.866-1.15 2.7-.3.8-.45 1.4-.45 1.8.367-.3.85-.784 1.45-1.45.634-.7 1.284-1.467 1.95-2.3a126.94 126.94 0 0 0 1.95-2.5c.634-.834 1.15-1.55 1.55-2.15ZM69.697 12.053c.6-.266 1.267-.233 2 .1.767.3 1.434.817 2 1.55.567.734.984 1.634 1.25 2.7.267 1.034.234 2.117-.1 3.25-.366 1.2-.9 2.55-1.6 4.05a50.188 50.188 0 0 1-2.35 4.35c-.833 1.4-1.7 2.684-2.6 3.85-.866 1.167-1.666 2.017-2.4 2.55-.4.3-.933.484-1.6.55a8.102 8.102 0 0 1-2-.15 4.995 4.995 0 0 1-1.7-.8c-.5-.366-.8-.816-.9-1.35-.1-.6-.116-1.366-.05-2.3.067-.933.2-1.933.4-3 .167-1.1.4-2.2.7-3.3.267-1.1.55-2.116.85-3.05.267-.966.534-1.766.8-2.4.267-.666.5-1.1.7-1.3.234-.233.584-.316 1.05-.25.467.034.917.15 1.35.35.434.2.8.45 1.1.75.3.267.4.517.3.75-.233.467-.533 1.284-.9 2.45-.366 1.134-.733 2.35-1.1 3.65-.333 1.3-.633 2.55-.9 3.75-.233 1.2-.333 2.084-.3 2.65.167-.033.567-.433 1.2-1.2.634-.766 1.334-1.733 2.1-2.9a43.907 43.907 0 0 0 2.25-4c.767-1.466 1.334-2.916 1.7-4.35.4-1.433.534-2.766.4-4-.133-1.233-.683-2.216-1.65-2.95Z"/><path fill="#F5F5F5" d="M62.197 20.353c.1-.233.267-.333.5-.3.267.034.517.117.75.25.267.134.483.3.65.5.167.167.234.3.2.4a40.642 40.642 0 0 1-1.75 3.2c-.666 1.167-1.4 2.3-2.2 3.4a26.425 26.425 0 0 1-2.4 2.9c-.8.867-1.55 1.484-2.25 1.85-.467.234-1 .334-1.6.3-.6-.066-1.183-.2-1.75-.4a5.37 5.37 0 0 1-1.5-.8c-.433-.333-.683-.666-.75-1-.133-.566-.133-1.333 0-2.3.133-.966.317-1.933.55-2.9.267-.966.517-1.833.75-2.6.267-.8.45-1.316.55-1.55-.666.567-1.416 1.384-2.25 2.45a75.168 75.168 0 0 0-2.5 3.4c-.8 1.2-1.55 2.384-2.25 3.55-.666 1.167-1.183 2.134-1.55 2.9-.166.3-.5.467-1 .5-.5 0-1-.083-1.5-.25-.5-.166-.933-.4-1.3-.7-.4-.3-.55-.6-.45-.9.2-.8.5-1.85.9-3.15.4-1.333.867-2.766 1.4-4.3a86.314 86.314 0 0 1 1.8-4.8 38.45 38.45 0 0 1 2.2-4.55c.233-.466.6-.7 1.1-.7.534 0 1.05.117 1.55.35.5.234.9.534 1.2.9.334.367.45.684.35.95-.333.7-.7 1.417-1.1 2.15-.366.7-.733 1.367-1.1 2-.333.6-.633 1.134-.9 1.6-.233.467-.366.784-.4.95.534-.766 1.1-1.533 1.7-2.3a67.144 67.144 0 0 1 1.85-2.15 23.58 23.58 0 0 1 1.9-1.8c.633-.533 1.25-.983 1.85-1.35.4-.233.883-.3 1.45-.2.6.1 1.15.3 1.65.6s.884.667 1.15 1.1c.3.4.367.8.2 1.2-.267.667-.616 1.5-1.05 2.5-.433.967-.85 2-1.25 3.1-.4 1.067-.75 2.1-1.05 3.1-.3 1-.45 1.85-.45 2.55.633-.366 1.317-.883 2.05-1.55a20.539 20.539 0 0 0 2.15-2.3c.734-.866 1.434-1.8 2.1-2.8.667-1 1.267-2 1.8-3Z"/><path fill="#F5F5F5" d="M43.33 19.653a.541.541 0 0 1 .5-.15c.234.034.45.117.65.25.2.134.35.317.45.55.1.2.084.417-.05.65-.433 1.3-1.05 2.6-1.85 3.9a25.003 25.003 0 0 1-2.65 3.6c-1 1.134-2.05 2.167-3.15 3.1-1.1.934-2.183 1.7-3.25 2.3-.5.267-1.033.367-1.6.3a6.43 6.43 0 0 1-1.7-.45 9.953 9.953 0 0 1-1.55-.9 9.193 9.193 0 0 1-1.15-.95c-.633-.666-.983-1.55-1.05-2.65-.066-1.133.067-2.35.4-3.65.3-1.3.767-2.65 1.4-4.05a34.088 34.088 0 0 1 2.1-3.95 23.784 23.784 0 0 1 2.5-3.25c.867-.933 1.684-1.616 2.45-2.05.467-.233.9-.35 1.3-.35.4-.033.817.034 1.25.2.434.134.867.35 1.3.65.467.267.984.567 1.55.9.8.5 1.167 1.134 1.1 1.9 0 .367-.15 1.017-.45 1.95-.266.934-.666 1.917-1.2 2.95-.5 1-1.133 1.95-1.9 2.85-.733.867-1.566 1.45-2.5 1.75-.666.167-1.25.217-1.75.15-.5-.066-1.05-.233-1.65-.5-.166.334-.35.834-.55 1.5-.2.634-.35 1.284-.45 1.95a8.612 8.612 0 0 0-.1 1.8c.034.5.234.784.6.85.534.1 1.284-.183 2.25-.85 1-.666 2.034-1.533 3.1-2.6a39.707 39.707 0 0 0 3.15-3.7c1.034-1.366 1.867-2.7 2.5-4Zm-5-3.7c-.333.234-.766.684-1.3 1.35-.5.634-1 1.317-1.5 2.05a57.633 57.633 0 0 0-1.25 2.05c-.333.634-.5 1.034-.5 1.2.6.1 1.15-.083 1.65-.55.534-.466 1-1.05 1.4-1.75.434-.733.767-1.5 1-2.3.267-.8.434-1.483.5-2.05Z"/><path fill="#F5F5F5" d="M10.25 25.853c.967.534 2.067.484 3.3-.15 1.267-.633 2.517-1.616 3.75-2.95 1.267-1.333 2.45-2.9 3.55-4.7 1.133-1.833 2.033-3.65 2.7-5.45.667-1.8 1.033-3.5 1.1-5.1.1-1.6-.233-2.85-1-3.75-.233-.266-.683-.383-1.35-.35-.633.034-1.367.184-2.2.45-.8.234-1.65.567-2.55 1-.867.434-1.667.9-2.4 1.4.233 0 .5.067.8.2.333.1.617.25.85.45.267.2.467.434.6.7.167.234.183.5.05.8-.3.534-.65 1.267-1.05 2.2-.4.934-.833 1.967-1.3 3.1-.433 1.1-.9 2.267-1.4 3.5-.467 1.234-.917 2.417-1.35 3.55-.433 1.1-.833 2.1-1.2 3-.367.9-.667 1.6-.9 2.1Zm-6-4.6c.2.367.45.734.75 1.1.3.367.633.784 1 1.25l6.2-15.65c-1.867 1.4-3.35 2.684-4.45 3.85-1.067 1.134-1.75 2.1-2.05 2.9-.3.767-.217 1.317.25 1.65.5.334 1.4.4 2.7.2-.167.434-.65.734-1.45.9-.767.167-1.583.15-2.45-.05-.867-.2-1.65-.6-2.35-1.2-.7-.6-1.017-1.45-.95-2.55 0-.7.317-1.533.95-2.5.633-.966 1.467-1.95 2.5-2.95a29.464 29.464 0 0 1 3.55-3c1.333-1 2.717-1.883 4.15-2.65a25.75 25.75 0 0 1 4.35-1.9c1.467-.466 2.833-.683 4.1-.65 1.1 0 2.183.35 3.25 1.05 1.067.7 2 1.567 2.8 2.6.833 1 1.483 2.067 1.95 3.2.467 1.134.65 2.15.55 3.05-.1 1.1-.417 2.384-.95 3.85-.5 1.434-1.167 2.9-2 4.4-.833 1.5-1.8 2.967-2.9 4.4a22.682 22.682 0 0 1-3.6 3.75c-1.267 1.067-2.617 1.884-4.05 2.45-1.433.534-2.883.684-4.35.45 1.167 1 2.367 1.967 3.6 2.9 1.267.934 2.5 1.767 3.7 2.5 1.2.734 2.333 1.334 3.4 1.8 1.1.467 2.067.734 2.9.8.867.067 1.583-.066 2.15-.4.567-.333.933-.75 1.1-1.25.3.034.45.25.45.65 0 .367-.133.817-.4 1.35-.233.5-.583 1.034-1.05 1.6-.433.6-.95 1.117-1.55 1.55-.567.467-1.2.8-1.9 1-.7.2-1.417.2-2.15 0-.9-.233-1.933-.683-3.1-1.35a39.728 39.728 0 0 1-3.6-2.3 68.747 68.747 0 0 1-3.75-2.95c-1.267-1.1-2.45-2.2-3.55-3.3l-3.4 9.2c-.1.3-.433.434-1 .4-.533 0-1.083-.1-1.65-.3a5.37 5.37 0 0 1-1.5-.8c-.4-.3-.533-.633-.4-1 .467-1.2 1.083-2.833 1.85-4.9.8-2.1 1.65-4.35 2.55-6.75l-.3-.4-.3-.4a4.93 4.93 0 0 1-.65-1.55 6.971 6.971 0 0 1-.1-1.65 4.03 4.03 0 0 1 .35-1.45c.2-.433.467-.75.8-.95Z"/></svg>